<?xml version="1.0" encoding="utf-8"?>
<!-- Generator: Adobe Illustrator 24.0.3, SVG Export Plug-In . SVG Version: 6.00 Build 0)  -->
<svg version="1.1" id="Layer_1" xmlns="http://www.w3.org/2000/svg" xmlns:xlink="http://www.w3.org/1999/xlink" x="0px" y="0px"
	 viewBox="0 0 45 36" style="enable-background:new 0 0 45 36;" xml:space="preserve">
<style type="text/css">
	.st0{fill:#FFFFFF;}
</style>
<g>
	<g>
		<g>
			<path class="st0" d="M6.67,32.04c-2,0-3.63-1.63-3.63-3.63V7.59c0-2,1.63-3.63,3.63-3.63h30.67c2,0,3.63,1.63,3.63,3.63v20.82
				c0,2-1.63,3.63-3.63,3.63H6.67z"/>
		</g>
		<g>
			<path d="M37.33,4.69c1.6,0,2.9,1.3,2.9,2.9v20.82c0,1.6-1.3,2.9-2.9,2.9H6.67c-1.6,0-2.9-1.3-2.9-2.9V7.59c0-1.6,1.3-2.9,2.9-2.9
				H37.33 M37.33,3.23H6.67c-2.41,0-4.36,1.95-4.36,4.36v20.82c0,2.41,1.95,4.36,4.36,4.36h30.67c2.41,0,4.36-1.95,4.36-4.36V7.59
				C41.69,5.18,39.74,3.23,37.33,3.23L37.33,3.23z"/>
		</g>
	</g>
	<g>
		<rect x="26.43" y="6.94" width="10.83" height="1.45"/>
	</g>
	<g>
		<rect x="30.37" y="9.89" width="6.89" height="1.45"/>
	</g>
	<g>
		<path d="M16.33,28.08H6.01V14.81h10.31V28.08z M7.47,26.63h7.41V16.27H7.47V26.63z"/>
	</g>
	<g>
		<rect x="19.54" y="26.63" width="17.72" height="1.45"/>
	</g>
	<g>
		<rect x="34.56" y="21.45" width="1.45" height="5.91"/>
	</g>
	<g>
		<rect x="30.63" y="18.49" width="1.45" height="8.86"/>
	</g>
	<g>
		<rect x="27.67" y="15.54" width="1.45" height="11.81"/>
	</g>
	<g>
		<rect x="23.74" y="21.45" width="1.45" height="5.91"/>
	</g>
	<g>
		<rect x="20.78" y="16.52" width="1.45" height="10.83"/>
	</g>
	<g>
		<path d="M9.69,13.31c-2.03,0-3.68-1.65-3.68-3.68c0-2.03,1.65-3.68,3.68-3.68c2.03,0,3.68,1.65,3.68,3.68
			C13.37,11.66,11.72,13.31,9.69,13.31z M9.69,7.4c-1.23,0-2.23,1-2.23,2.23c0,1.23,1,2.23,2.23,2.23c1.23,0,2.23-1,2.23-2.23
			C11.92,8.4,10.92,7.4,9.69,7.4z"/>
	</g>
</g>
</svg>
