<?xml version="1.0" encoding="utf-8"?>
<!-- Generator: Adobe Illustrator 24.0.3, SVG Export Plug-In . SVG Version: 6.00 Build 0)  -->
<svg version="1.1" id="Layer_1" xmlns="http://www.w3.org/2000/svg" xmlns:xlink="http://www.w3.org/1999/xlink" x="0px" y="0px"
	 viewBox="0 0 190.7 81.2" style="enable-background:new 0 0 190.7 81.2;" xml:space="preserve">
<style type="text/css">
	.st0{fill:#29ABE2;}
	.st1{fill:#ED1C24;}
	.st2{fill:#FFFFFF;}
</style>
<g>
	<rect class="st0" width="190.7" height="81.2"/>
	<rect class="st1" width="56.76" height="81.2"/>
	<g>
		<path class="st2" d="M71.86,65.49V14.98h10.85c1.99,0,3.74,0.26,5.25,0.78c1.51,0.52,2.88,1.44,4.11,2.77
			c1.23,1.32,2.08,2.87,2.55,4.65c0.47,1.77,0.71,4.17,0.71,7.2c0,2.27-0.13,4.19-0.39,5.75c-0.26,1.56-0.82,3.03-1.67,4.4
			c-0.99,1.66-2.32,2.94-3.97,3.87c-1.66,0.92-3.83,1.38-6.53,1.38H79.1v19.72H71.86z M79.1,21.79v17.17h3.48
			c1.47,0,2.6-0.21,3.41-0.64c0.8-0.43,1.39-1.02,1.77-1.77c0.38-0.71,0.6-1.58,0.67-2.63c0.07-1.04,0.11-2.2,0.11-3.48
			c0-1.18-0.02-2.31-0.07-3.37c-0.05-1.06-0.26-2-0.64-2.8c-0.38-0.8-0.95-1.42-1.7-1.84c-0.76-0.43-1.84-0.64-3.26-0.64H79.1z"/>
		<path class="st2" d="M100.31,26.9c0-2.03,0.35-3.83,1.06-5.39c0.71-1.56,1.66-2.86,2.84-3.9c1.13-0.99,2.42-1.75,3.87-2.27
			c1.44-0.52,2.9-0.78,4.36-0.78c1.47,0,2.92,0.26,4.36,0.78c1.44,0.52,2.75,1.28,3.94,2.27c1.13,1.04,2.06,2.34,2.77,3.9
			c0.71,1.56,1.06,3.36,1.06,5.39v26.68c0,2.13-0.35,3.95-1.06,5.46c-0.71,1.51-1.63,2.77-2.77,3.76c-1.18,1.04-2.5,1.82-3.94,2.34
			c-1.44,0.52-2.9,0.78-4.36,0.78c-1.47,0-2.92-0.26-4.36-0.78c-1.44-0.52-2.73-1.3-3.87-2.34c-1.18-0.99-2.13-2.25-2.84-3.76
			c-0.71-1.51-1.06-3.33-1.06-5.46V26.9z M107.55,53.57c0,1.75,0.48,3.04,1.45,3.87c0.97,0.83,2.12,1.24,3.44,1.24
			c1.32,0,2.47-0.41,3.44-1.24c0.97-0.83,1.45-2.12,1.45-3.87V26.9c0-1.75-0.49-3.04-1.45-3.87c-0.97-0.83-2.12-1.24-3.44-1.24
			c-1.32,0-2.47,0.41-3.44,1.24c-0.97,0.83-1.45,2.12-1.45,3.87V53.57z"/>
		<path class="st2" d="M134.86,65.49v-43.7h-8.37v-6.81h23.98v6.81h-8.37v43.7H134.86z"/>
		<path class="st2" d="M177.08,29.52h-7.24v-1.63c0-1.66-0.39-3.09-1.17-4.29c-0.78-1.21-2.09-1.81-3.94-1.81
			c-0.99,0-1.8,0.19-2.41,0.57c-0.62,0.38-1.11,0.85-1.49,1.42c-0.38,0.62-0.64,1.31-0.78,2.09c-0.14,0.78-0.21,1.6-0.21,2.45
			c0,0.99,0.04,1.82,0.11,2.48c0.07,0.66,0.25,1.25,0.53,1.77c0.28,0.52,0.7,0.97,1.24,1.35c0.54,0.38,1.29,0.76,2.23,1.13l5.53,2.2
			c1.61,0.62,2.91,1.34,3.9,2.16c0.99,0.83,1.77,1.79,2.34,2.87c0.52,1.13,0.88,2.42,1.06,3.87c0.19,1.44,0.28,3.09,0.28,4.93
			c0,2.13-0.21,4.1-0.64,5.92c-0.43,1.82-1.11,3.37-2.06,4.65c-0.99,1.32-2.29,2.37-3.9,3.12c-1.61,0.76-3.57,1.14-5.89,1.14
			c-1.75,0-3.38-0.31-4.9-0.92c-1.51-0.61-2.81-1.47-3.9-2.55c-1.09-1.09-1.95-2.35-2.59-3.8c-0.64-1.44-0.96-3.02-0.96-4.72v-2.7
			h7.24v2.27c0,1.32,0.39,2.52,1.17,3.58c0.78,1.06,2.09,1.6,3.94,1.6c1.23,0,2.19-0.18,2.87-0.53c0.69-0.35,1.22-0.86,1.6-1.53
			c0.38-0.66,0.6-1.45,0.67-2.38c0.07-0.92,0.11-1.95,0.11-3.09c0-1.32-0.05-2.41-0.14-3.26c-0.1-0.85-0.28-1.54-0.57-2.06
			c-0.33-0.52-0.77-0.95-1.31-1.28c-0.54-0.33-1.27-0.69-2.16-1.06l-5.18-2.13c-3.12-1.28-5.21-2.97-6.28-5.07
			c-1.06-2.1-1.6-4.74-1.6-7.91c0-1.89,0.26-3.69,0.78-5.39c0.52-1.7,1.3-3.17,2.34-4.4c0.99-1.23,2.26-2.21,3.8-2.94
			c1.54-0.73,3.37-1.1,5.5-1.1c1.8,0,3.44,0.33,4.93,0.99c1.49,0.66,2.78,1.54,3.87,2.62c2.17,2.27,3.26,4.87,3.26,7.8V29.52z"/>
	</g>
	<g>
		<g>
			<rect x="7.23" y="61.93" class="st2" width="1.51" height="0.7"/>
		</g>
		<g>
			<path class="st2" d="M72.98,62.62h-3.09v-0.7h3.09V62.62z M68.69,62.62H65.6v-0.7h3.09V62.62z M64.41,62.62h-3.09v-0.7h3.09
				V62.62z M60.13,62.62h-3.09v-0.7h3.09V62.62z M55.85,62.62h-3.09v-0.7h3.09V62.62z M51.56,62.62h-3.09v-0.7h3.09V62.62z
				 M47.28,62.62h-3.09v-0.7h3.09V62.62z M43,62.62h-3.09v-0.7H43V62.62z M38.72,62.62h-3.09v-0.7h3.09V62.62z M34.43,62.62h-3.09
				v-0.7h3.09V62.62z M30.15,62.62h-3.09v-0.7h3.09V62.62z M25.87,62.62h-3.09v-0.7h3.09V62.62z M21.59,62.62h-3.09v-0.7h3.09V62.62
				z M17.3,62.62h-3.09v-0.7h3.09V62.62z M13.02,62.62H9.93v-0.7h3.09V62.62z"/>
		</g>
		<g>
			<polygon class="st2" points="76.03,62.62 74.17,62.62 74.17,61.93 75.33,61.93 75.33,60.77 76.03,60.77 			"/>
		</g>
		<g>
			<path class="st2" d="M76.03,59.61h-0.7V56.6h0.7V59.61z M76.03,55.44h-0.7v-3.01h0.7V55.44z M76.03,51.28h-0.7v-3.01h0.7V51.28z
				 M76.03,47.11h-0.7v-3.01h0.7V47.11z M76.03,42.95h-0.7v-3.01h0.7V42.95z M76.03,38.78h-0.7v-3.01h0.7V38.78z"/>
		</g>
		<g>
			<polygon class="st2" points="76.03,34.62 75.33,34.62 75.33,32.76 77.19,32.76 77.19,33.46 76.03,33.46 			"/>
		</g>
		<g>
			<path class="st2" d="M89.57,33.46h-2.98v-0.7h2.98V33.46z M85.45,33.46h-2.98v-0.7h2.98V33.46z M81.32,33.46h-2.98v-0.7h2.98
				V33.46z"/>
		</g>
		<g>
			<polygon class="st2" points="92.58,34.62 91.88,34.62 91.88,33.46 90.72,33.46 90.72,32.76 92.58,32.76 			"/>
		</g>
		<g>
			<path class="st2" d="M92.58,51.7h-0.7v-3.08h0.7V51.7z M92.58,47.43h-0.7v-3.08h0.7V47.43z M92.58,43.16h-0.7v-3.08h0.7V43.16z
				 M92.58,38.89h-0.7v-3.08h0.7V38.89z"/>
		</g>
		<g>
			<polygon class="st2" points="93.74,54.74 91.88,54.74 91.88,52.88 92.58,52.88 92.58,54.04 93.74,54.04 			"/>
		</g>
		<g>
			<path class="st2" d="M117.22,54.74h-2.83v-0.7h2.83V54.74z M113.31,54.74h-2.83v-0.7h2.83V54.74z M109.4,54.74h-2.83v-0.7h2.83
				V54.74z M105.48,54.74h-2.83v-0.7h2.83V54.74z M101.57,54.74h-2.83v-0.7h2.83V54.74z M97.66,54.74h-2.83v-0.7h2.83V54.74z"/>
		</g>
		<g>
			<polygon class="st2" points="120.17,54.74 118.31,54.74 118.31,54.04 119.47,54.04 119.47,52.88 120.17,52.88 			"/>
		</g>
		<g>
			<path class="st2" d="M120.17,51.52h-0.7v-3.54h0.7V51.52z M120.17,46.62h-0.7v-3.54h0.7V46.62z"/>
		</g>
		<g>
			<polygon class="st2" points="120.17,41.71 119.47,41.71 119.47,39.86 121.33,39.86 121.33,40.55 120.17,40.55 			"/>
		</g>
		<g>
			<path class="st2" d="M135.16,40.55h-3.33v-0.7h3.33V40.55z M130.55,40.55h-3.33v-0.7h3.33V40.55z M125.94,40.55h-3.33v-0.7h3.33
				V40.55z"/>
		</g>
		<g>
			<polygon class="st2" points="138.3,41.71 137.61,41.71 137.61,40.55 136.44,40.55 136.44,39.86 138.3,39.86 			"/>
		</g>
		<g>
			<path class="st2" d="M138.3,66.7h-0.7V63.7h0.7V66.7z M138.3,62.54h-0.7v-3.01h0.7V62.54z M138.3,58.37h-0.7v-3.01h0.7V58.37z
				 M138.3,54.21h-0.7V51.2h0.7V54.21z M138.3,50.04h-0.7v-3.01h0.7V50.04z M138.3,45.88h-0.7v-3.01h0.7V45.88z"/>
		</g>
		<g>
			<polygon class="st2" points="139.46,69.72 137.61,69.72 137.61,67.86 138.3,67.86 138.3,69.02 139.46,69.02 			"/>
		</g>
		<g>
			<path class="st2" d="M169.16,69.72h-3.06v-0.7h3.06V69.72z M164.92,69.72h-3.06v-0.7h3.06V69.72z M160.68,69.72h-3.06v-0.7h3.06
				V69.72z M156.43,69.72h-3.06v-0.7h3.06V69.72z M152.19,69.72h-3.06v-0.7h3.06V69.72z M147.95,69.72h-3.06v-0.7h3.06V69.72z
				 M143.71,69.72h-3.06v-0.7h3.06V69.72z"/>
		</g>
		<g>
			<polygon class="st2" points="172.2,69.72 170.34,69.72 170.34,69.02 171.5,69.02 171.5,67.86 172.2,67.86 			"/>
		</g>
		<g>
			<path class="st2" d="M172.2,66.7h-0.7v-3.02h0.7V66.7z M172.2,62.52h-0.7v-3.02h0.7V62.52z M172.2,58.34h-0.7v-3.02h0.7V58.34z
				 M172.2,54.17h-0.7v-3.02h0.7V54.17z M172.2,49.99h-0.7v-3.02h0.7V49.99z M172.2,45.81h-0.7v-3.02h0.7V45.81z M172.2,41.63h-0.7
				v-3.02h0.7V41.63z M172.2,37.46h-0.7v-3.02h0.7V37.46z M172.2,33.28h-0.7v-3.02h0.7V33.28z"/>
		</g>
		<g>
			<rect x="171.5" y="27.59" class="st2" width="0.7" height="1.51"/>
		</g>
	</g>
	<circle class="st1" cx="75.68" cy="33.11" r="2.36"/>
	<circle class="st1" cx="107.21" cy="54.39" r="2.36"/>
	<circle class="st1" cx="171.85" cy="69.37" r="2.36"/>
	<circle class="st1" cx="171.85" cy="69.37" r="2.36"/>
	<path class="st1" d="M174.22,22.86c0,1.31-1.58,4.73-2.36,4.73c-0.79,0-2.36-3.42-2.36-4.73s1.06-2.36,2.36-2.36
		S174.22,21.55,174.22,22.86z"/>
	<circle class="st2" cx="171.83" cy="22.89" r="1.09"/>
	<g>
		<g>
			<path class="st2" d="M38.79,72.03c-3.21,0-5.71-0.91-7.5-2.73c-1.79-1.82-2.69-4.7-2.69-8.64V41.32h-3.97v-4.87h3.97V26.42h5.87
				v10.03h10.81v4.87H34.48v16.59c0,1.77,0.03,3.13,0.09,4.09c0.06,0.96,0.3,1.85,0.72,2.69c0.36,0.73,0.93,1.28,1.72,1.64
				c0.79,0.36,1.86,0.55,3.22,0.55c0.96,0,1.89-0.14,2.78-0.42c0.9-0.28,1.54-0.52,1.94-0.7h0.35v5.28
				c-1.1,0.31-2.22,0.56-3.36,0.73C40.8,71.94,39.75,72.03,38.79,72.03z"/>
		</g>
		<g>
			<path class="st2" d="M20.57,11.71c-3.77,0-6.66,1.09-8.69,3.28c-2.02,2.19-3.03,5.38-3.03,9.59v1.16H4.89v4.87h3.97v30.02h5.87
				V30.62h9.53v-4.87h-9.72v-1.19c0-2.92,0.53-4.93,1.58-6.05c1.05-1.11,2.82-1.67,5.3-1.67l-0.83-5.12
				C20.58,11.72,20.58,11.71,20.57,11.71z"/>
			<g>
				<polygon class="st2" points="21.35,16.84 56.92,16.84 56.92,11.71 20.57,11.71 				"/>
				<polygon class="st2" points="29.98,3.45 29.98,24.72 42.53,14.28 				"/>
				<polygon class="st2" points="42.43,3.45 42.43,24.72 54.98,14.28 				"/>
			</g>
		</g>
	</g>
</g>
</svg>
