<?xml version="1.0" encoding="utf-8"?>
<!-- Generator: Adobe Illustrator 24.0.3, SVG Export Plug-In . SVG Version: 6.00 Build 0)  -->
<svg version="1.1" id="Layer_1" xmlns="http://www.w3.org/2000/svg" xmlns:xlink="http://www.w3.org/1999/xlink" x="0px" y="0px"
	 viewBox="0 0 45 36" style="enable-background:new 0 0 45 36;" xml:space="preserve">
<style type="text/css">
	.st0{fill:#FFFFFF;}
</style>
<g>
	<g>
		<g>
			<path class="st0" d="M35.38,28.32c-0.06-0.71-0.28-1.75-1-2.53c-0.64-0.69-1.51-1.04-2.6-1.04c-1.08,0-1.96,0.35-2.61,1.04
				c-0.74,0.78-0.97,1.83-1.05,2.54H15.05c-0.06-0.71-0.28-1.75-1-2.53c-0.64-0.69-1.51-1.05-2.6-1.05c-1.17,0-2.1,0.37-2.75,1.1
				c-0.69,0.77-0.89,1.78-0.93,2.47H3.34L3.8,15.08l4.94-6.14h6.68v7.04c0,0.4,0.32,0.73,0.73,0.73h1.45c0.4,0,0.72-0.32,0.73-0.72
				l0.12-9.96h22.79v22.29H35.38z"/>
		</g>
		<g>
			<path d="M40.51,6.76V27.6h-4.51c-0.14-0.73-0.45-1.59-1.1-2.3c-0.54-0.58-1.51-1.28-3.13-1.28c-1.61,0-2.59,0.69-3.14,1.27
				c-0.66,0.71-0.99,1.57-1.14,2.31H15.68c-0.14-0.73-0.45-1.59-1.09-2.29c-0.54-0.58-1.51-1.28-3.14-1.28
				c-1.73,0-2.75,0.73-3.29,1.35c-0.62,0.69-0.9,1.52-1.03,2.23H4.09l0.43-12.25l4.57-5.68h5.61v6.32c0,0.8,0.65,1.45,1.45,1.45
				h1.45c0.8,0,1.44-0.64,1.45-1.43l0.11-9.24H40.51 M41.97,5.31H17.73l-0.13,10.67h-1.45V8.21H8.4l-5.31,6.6l-0.5,14.24h5.91
				c0,0-0.42-3.57,2.95-3.57c3.2,0,2.89,3.57,2.89,3.57h14.49c0,0-0.23-3.57,2.95-3.57s2.89,3.57,2.89,3.57h7.3V5.31L41.97,5.31z"/>
		</g>
	</g>
	<g>
		<polyline class="st0" points="12.92,11.83 9.97,11.83 7.02,15.37 7.02,17.18 12.92,17.18 		"/>
		<path d="M12.92,17.9H6.29v-2.8l3.34-4.01h3.29c0.4,0,0.73,0.32,0.73,0.73s-0.32,0.73-0.73,0.73h-2.61l-2.57,3.08v0.82h5.18
			c0.4,0,0.73,0.32,0.73,0.73C13.65,17.58,13.33,17.9,12.92,17.9z"/>
	</g>
	<g>
		<path d="M11.45,32.11c-2.03,0-3.68-1.65-3.68-3.68s1.65-3.68,3.68-3.68s3.68,1.65,3.68,3.68S13.48,32.11,11.45,32.11z M11.45,26.2
			c-1.23,0-2.23,1-2.23,2.23s1,2.23,2.23,2.23s2.23-1,2.23-2.23S12.68,26.2,11.45,26.2z"/>
	</g>
	<g>
		<path d="M31.78,32.11c-2.03,0-3.68-1.65-3.68-3.68s1.65-3.68,3.68-3.68s3.68,1.65,3.68,3.68S33.81,32.11,31.78,32.11z M31.78,26.2
			c-1.23,0-2.23,1-2.23,2.23s1,2.23,2.23,2.23c1.23,0,2.23-1,2.23-2.23S33.01,26.2,31.78,26.2z"/>
	</g>
	<g>
		<polyline class="st0" points="36.41,10.6 29.52,13.32 34.44,14.96 25.86,17.28 31.13,18.68 22.86,21.91 		"/>
		<path d="M22.86,22.64c-0.29,0-0.56-0.18-0.68-0.46c-0.15-0.37,0.04-0.79,0.41-0.94l6.2-2.43l-3.13-0.83l0-1.4l6.25-1.69
			l-2.63-0.87l-0.04-1.36l6.89-2.73c0.37-0.15,0.79,0.03,0.94,0.41c0.15,0.37-0.03,0.79-0.41,0.94l-5.03,1.99l3.03,1.01l-0.04,1.39
			l-5.96,1.61l2.65,0.7l0.08,1.38l-8.27,3.23C23.04,22.62,22.95,22.64,22.86,22.64z"/>
	</g>
</g>
</svg>
