<?xml version="1.0" encoding="utf-8"?>
<!-- Generator: Adobe Illustrator 24.0.3, SVG Export Plug-In . SVG Version: 6.00 Build 0)  -->
<svg version="1.1" id="Layer_1" xmlns="http://www.w3.org/2000/svg" xmlns:xlink="http://www.w3.org/1999/xlink" x="0px" y="0px"
	 viewBox="0 0 45 36" style="enable-background:new 0 0 45 36;" xml:space="preserve">
<style type="text/css">
	.st0{fill:#FFFFFF;}
	.st1{fill-rule:evenodd;clip-rule:evenodd;fill:#FFFFFF;}
</style>
<g>
	<g>
		<g>
			<g>
				<path class="st0" d="M6.52,27.92H6.41c-1.56,0-2.83-1.41-2.83-3.15V9.29c0-1.74,1.27-3.15,2.83-3.15l15.01-1.29l9.92,1.28
					c1.65,0.01,2.92,1.42,2.92,3.16v15.48c0,1.74-1.27,3.15-2.83,3.15h-0.11L19.4,31.77L6.52,27.92z"/>
			</g>
			<g>
				<path d="M21.41,5.58l9.85,1.27l0.09,0.01h0.09c1.16,0,2.1,1.09,2.1,2.43v15.48c0,1.34-0.94,2.43-2.1,2.43h-0.23L31,27.27
					l-11.61,3.74L6.83,27.26l-0.2-0.06H6.41c-1.16,0-2.1-1.09-2.1-2.43V9.29c0-1.34,0.94-2.43,2.1-2.43h0.06l0.06-0.01L21.41,5.58
					 M21.44,4.12L6.41,5.42c-1.96,0-3.56,1.74-3.56,3.88v15.48c0,2.14,1.59,3.88,3.56,3.88l13,3.88l12.04-3.88
					c1.96,0,3.56-1.74,3.56-3.88V9.29c0-2.14-1.59-3.88-3.56-3.88L21.44,4.12L21.44,4.12z"/>
			</g>
		</g>
		<g>
			<path d="M19.41,32.38c-0.4,0-0.73-0.32-0.73-0.73V12.75L8.7,10.16c-0.39-0.1-0.62-0.5-0.52-0.88c0.1-0.39,0.49-0.62,0.88-0.52
				l11.07,2.87v20.03C20.14,32.06,19.81,32.38,19.41,32.38z"/>
		</g>
		<g>
			<path d="M19.41,12.91c-0.32,0-0.61-0.21-0.7-0.53c-0.11-0.39,0.12-0.79,0.5-0.9l9.69-2.73c0.39-0.11,0.79,0.12,0.9,0.5
				c0.11,0.39-0.12,0.79-0.5,0.9l-9.69,2.73C19.54,12.9,19.47,12.91,19.41,12.91z"/>
		</g>
	</g>
	<g>
		<g>
			<circle class="st1" cx="35" cy="24.29" r="7.56"/>
			<path d="M35,32.58c-4.57,0-8.29-3.72-8.29-8.29S30.43,16,35,16c4.57,0,8.29,3.72,8.29,8.29S39.57,32.58,35,32.58z M35,17.45
				c-3.77,0-6.84,3.07-6.84,6.84s3.07,6.84,6.84,6.84c3.77,0,6.84-3.07,6.84-6.84S38.77,17.45,35,17.45z"/>
		</g>
		<g>
			<g>
				<path d="M35,30.03c-0.4,0-0.73-0.32-0.73-0.73V19.28c0-0.4,0.32-0.73,0.73-0.73s0.73,0.32,0.73,0.73V29.3
					C35.73,29.7,35.4,30.03,35,30.03z"/>
			</g>
			<g>
				<path d="M40.01,25.02H29.99c-0.4,0-0.73-0.32-0.73-0.73s0.32-0.73,0.73-0.73h10.02c0.4,0,0.73,0.32,0.73,0.73
					S40.41,25.02,40.01,25.02z"/>
			</g>
		</g>
	</g>
</g>
</svg>
